<svg width="23" height="29" viewBox="0 0 23 29" fill="none" xmlns="http://www.w3.org/2000/svg">
<path d="M19.1034 15.4761C19.1327 13.2753 20.2802 11.2422 22.1448 10.0889C20.9622 8.39118 19.0536 7.35256 16.9929 7.28783C14.8238 7.05834 12.725 8.59126 11.6185 8.59126C10.4915 8.59126 8.79083 7.30843 6.96131 7.34668C4.55221 7.42612 2.35973 8.77073 1.18592 10.8862C-1.311 15.2319 0.550709 21.6166 2.94225 25.1297C4.13948 26.8509 5.53869 28.7693 7.3682 28.7016C9.15966 28.628 9.82706 27.5541 11.9903 27.5541C14.1301 27.5541 14.7594 28.7016 16.627 28.6575C18.5472 28.628 19.7591 26.9303 20.9124 25.1944C21.773 23.9675 22.4346 22.6141 22.8737 21.1812C20.5904 20.2132 19.1063 17.9653 19.1034 15.4761ZM15.579 4.97816C16.627 3.71299 17.1422 2.08886 17.0192 0.447083C15.418 0.614791 13.9398 1.38566 12.8772 2.60082C11.8293 3.80126 11.2965 5.36948 11.4019 6.96124C13.0207 6.9789 14.5604 6.24628 15.579 4.97816Z" fill="white"/>
</svg>
