<svg width="260" height="64" viewBox="0 0 260 64" fill="none" xmlns="http://www.w3.org/2000/svg">
<path d="M32 2H228C244.569 2 258 15.4315 258 32C258 48.5685 244.569 62 228 62H32C15.4315 62 2 48.5685 2 32C2 15.4315 15.4315 2 32 2Z" fill="black"/>
<path d="M32 2H228C244.569 2 258 15.4315 258 32C258 48.5685 244.569 62 228 62H32C15.4315 62 2 48.5685 2 32C2 15.4315 15.4315 2 32 2Z" stroke="#0751E4" stroke-width="4"/>
<path d="M87.1034 31.0291C87.1327 28.8282 88.2802 26.7951 90.1448 25.6418C88.9622 23.9441 87.0536 22.9055 84.9929 22.8408C82.8238 22.6113 80.725 24.1442 79.6185 24.1442C78.4915 24.1442 76.7908 22.8613 74.9613 22.8996C72.5522 22.979 70.3597 24.3236 69.1859 26.4391C66.689 30.7848 68.5507 37.1695 70.9422 40.6826C72.1395 42.4038 73.5387 44.3222 75.3682 44.2545C77.1597 44.1809 77.8271 43.107 79.9903 43.107C82.1301 43.107 82.7594 44.2545 84.627 44.2104C86.5472 44.181 87.7591 42.4833 88.9124 40.7473C89.773 39.5204 90.4346 38.167 90.8737 36.7341C88.5904 35.7661 87.1063 33.5182 87.1034 31.0291ZM83.579 20.5311C84.627 19.2659 85.1422 17.6418 85.0192 16C83.418 16.1677 81.9398 16.9386 80.8772 18.1537C79.8293 19.3542 79.2965 20.9224 79.4019 22.5142C81.0207 22.5318 82.5604 21.7992 83.579 20.5311Z" fill="white"/>
<path d="M116.589 40.6257H110.714L109.301 44.911H106.812L112.377 29.0495H114.962L120.529 44.911H117.997L116.589 40.6257ZM111.32 38.6471H115.978L113.68 31.6906H113.615C113.618 31.6906 111.32 38.6471 111.32 38.6471ZM132.552 39.129C132.552 42.7217 130.681 45.0315 127.859 45.0315C126.401 45.1098 125.029 44.3238 124.323 43.0078H124.27V48.7356H121.964V33.3469H124.197V35.2713H124.238C124.973 33.9643 126.349 33.1783 127.818 33.2265C130.672 33.2295 132.552 35.5483 132.552 39.129ZM130.18 39.129C130.18 36.789 129.004 35.2502 127.209 35.2502C125.447 35.2502 124.262 36.8222 124.262 39.132C124.262 41.4629 125.447 43.0228 127.209 43.0228C129.004 43.0228 130.18 41.493 130.18 39.129ZM144.922 39.129C144.922 42.7217 143.051 45.0315 140.23 45.0315C138.772 45.1098 137.399 44.3238 136.694 43.0078H136.641V48.7356H134.334V33.3469H136.568V35.2713H136.609C137.346 33.9643 138.719 33.1783 140.189 33.2265C143.043 33.2295 144.922 35.5483 144.922 39.129ZM142.551 39.129C142.551 36.789 141.374 35.2502 139.58 35.2502C137.818 35.2502 136.632 36.8222 136.632 39.132C136.632 41.4629 137.818 43.0228 139.58 43.0228C141.374 43.0228 142.551 41.493 142.551 39.129ZM153.098 40.4932C153.27 42.0652 154.754 43.0981 156.783 43.0981C158.727 43.0981 160.126 42.0652 160.126 40.6468C160.126 39.4151 159.283 38.6803 157.284 38.1743L155.284 37.6804C152.454 36.9758 151.139 35.6146 151.139 33.4041C151.139 30.6667 153.458 28.7875 156.748 28.7875C160.006 28.7875 162.239 30.6667 162.315 33.4041H159.985C159.845 31.8201 158.574 30.8655 156.716 30.8655C154.857 30.8655 153.587 31.8321 153.587 33.2385C153.587 34.3618 154.4 35.0183 156.388 35.5242L158.086 35.9549C161.25 36.7228 162.561 38.0328 162.561 40.3516C162.561 43.3179 160.264 45.179 156.61 45.179C153.191 45.179 150.882 43.3631 150.732 40.4962C150.735 40.4932 153.098 40.4932 153.098 40.4932ZM167.546 30.6125V33.3499H169.683V35.2291H167.546V41.6044C167.546 42.5952 167.974 43.0559 168.913 43.0559C169.168 43.0499 169.42 43.0319 169.672 43.0017V44.8689C169.247 44.9502 168.82 44.9863 168.389 44.9803C166.115 44.9803 165.225 44.1009 165.225 41.8604V35.2321H163.589V33.3529H165.225V30.6125H167.546ZM170.919 39.129C170.919 35.4911 173.003 33.2054 176.249 33.2054C179.507 33.2054 181.582 35.4911 181.582 39.129C181.582 42.7789 179.519 45.0526 176.249 45.0526C172.982 45.0556 170.919 42.7789 170.919 39.129ZM179.232 39.129C179.232 36.6324 178.12 35.1598 176.249 35.1598C174.381 35.1598 173.269 36.6445 173.269 39.129C173.269 41.6345 174.381 43.0951 176.249 43.0951C178.12 43.0981 179.232 41.6375 179.232 39.129ZM185.686 33.3469V35.3134H185.739C186.046 34.0456 187.173 33.1753 188.441 33.2234C188.707 33.2234 188.974 33.2536 189.231 33.3108V35.5302C188.895 35.4248 188.546 35.3767 188.195 35.3857C187.516 35.3586 186.86 35.6356 186.398 36.1476C185.935 36.6596 185.713 37.3522 185.792 38.0478V44.905H183.482V33.3469H185.686ZM199.872 41.5141C199.561 43.6131 197.574 45.0526 195.033 45.0526C191.763 45.0526 189.735 42.8 189.735 39.1832C189.735 35.5574 191.775 33.2024 194.936 33.2024C198.045 33.2024 200 35.4007 200 38.9061V39.7192H192.062V39.8638C191.989 40.7251 192.276 41.5773 192.855 42.2037C193.435 42.8301 194.246 43.1704 195.086 43.1403C196.207 43.2487 197.261 42.5861 197.682 41.5141H199.872ZM192.071 38.0629H197.691C197.732 37.289 197.46 36.5331 196.936 35.9759C196.412 35.4188 195.686 35.1117 194.933 35.1267C194.175 35.1207 193.446 35.4279 192.908 35.982C192.372 36.5331 192.068 37.2829 192.071 38.0629Z" fill="white"/>
<path d="M111.034 17.112C112.015 17.0398 112.972 17.4222 113.648 18.157C114.324 18.8888 114.643 19.8946 114.52 20.8975C114.52 23.3338 113.241 24.7311 111.034 24.7311H108.358V17.109H111.034V17.112ZM109.509 23.656H110.905C111.605 23.6981 112.287 23.4151 112.761 22.885C113.235 22.355 113.452 21.6293 113.349 20.9155C113.443 20.2048 113.226 19.4881 112.752 18.9611C112.278 18.4341 111.602 18.151 110.905 18.1901H109.509V23.656ZM115.817 21.8551C115.72 20.8222 116.2 19.8254 117.055 19.2803C117.91 18.7322 118.993 18.7322 119.848 19.2803C120.702 19.8254 121.183 20.8222 121.086 21.8551C121.183 22.8881 120.705 23.8849 119.848 24.4329C118.993 24.981 117.91 24.981 117.052 24.4329C116.2 23.8879 115.72 22.8881 115.817 21.8551ZM119.956 21.8551C119.956 20.6084 119.412 19.8796 118.457 19.8796C117.497 19.8796 116.959 20.6084 116.959 21.8551C116.959 23.1139 117.497 23.8367 118.457 23.8367C119.412 23.8367 119.956 23.1079 119.956 21.8551ZM128.1 24.7341H126.955L125.799 20.5H125.711L124.561 24.7341H123.428L121.885 18.9822H123.003L124.004 23.3699H124.086L125.234 18.9822H126.293L127.441 23.3699H127.529L128.524 18.9822H129.628L128.1 24.7341ZM130.93 18.9822H131.993V19.8946H132.075C132.362 19.2231 133.032 18.8105 133.743 18.8707C134.294 18.8286 134.835 19.0454 135.21 19.461C135.587 19.8766 135.76 20.4457 135.678 21.0089V24.7311H134.575V21.292C134.575 20.3674 134.185 19.9097 133.369 19.9097C132.994 19.8916 132.631 20.0422 132.376 20.3223C132.119 20.6023 131.996 20.9848 132.034 21.3673V24.7311H130.93V18.9822ZM137.437 16.7356H138.541V24.7311H137.437V16.7356ZM140.072 21.8551C139.975 20.8222 140.455 19.8254 141.313 19.2803C142.168 18.7322 143.251 18.7322 144.106 19.2803C144.96 19.8254 145.443 20.8222 145.347 21.8551C145.443 22.8881 144.966 23.8849 144.109 24.4329C143.251 24.981 142.168 24.981 141.313 24.4329C140.455 23.8879 139.975 22.8881 140.072 21.8551ZM144.211 21.8551C144.211 20.6084 143.667 19.8796 142.712 19.8796C141.752 19.8796 141.214 20.6084 141.214 21.8551C141.214 23.1139 141.752 23.8367 142.712 23.8367C143.667 23.8367 144.211 23.1079 144.211 21.8551ZM146.509 23.1079C146.509 22.0719 147.258 21.4757 148.587 21.3914L150.101 21.301V20.8041C150.101 20.1958 149.711 19.8555 148.956 19.8555C148.341 19.8555 147.914 20.0874 147.791 20.4939H146.723C146.834 19.5062 147.738 18.8738 149.006 18.8738C150.408 18.8738 151.198 19.5905 151.198 20.8071V24.7371H150.136V23.927H150.048C149.688 24.5173 149.044 24.8636 148.368 24.8305C147.893 24.8817 147.419 24.7221 147.065 24.3938C146.714 24.0655 146.509 23.5988 146.509 23.1079ZM150.101 22.617V22.1352L148.734 22.2255C147.964 22.2797 147.615 22.5478 147.615 23.0567C147.615 23.5747 148.051 23.8758 148.652 23.8758C149.006 23.912 149.363 23.8005 149.635 23.5626C149.91 23.3217 150.077 22.9814 150.101 22.617ZM152.65 21.8551C152.65 20.0362 153.558 18.8858 154.971 18.8858C155.683 18.8527 156.353 19.2442 156.687 19.8946H156.769V16.7356H157.872V24.7341H156.816V23.8246H156.728C156.371 24.4691 155.692 24.8576 154.971 24.8275C153.549 24.8275 152.65 23.6771 152.65 21.8551ZM153.789 21.8551C153.789 23.0748 154.348 23.8096 155.282 23.8096C156.213 23.8096 156.786 23.0657 156.786 21.8611C156.786 20.6626 156.204 19.9067 155.282 19.9067C154.357 19.9067 153.789 20.6445 153.789 21.8551ZM162.436 21.8551C162.339 20.8222 162.819 19.8254 163.674 19.2803C164.529 18.7322 165.612 18.7322 166.467 19.2803C167.321 19.8254 167.801 20.8222 167.705 21.8551C167.801 22.8881 167.324 23.8849 166.467 24.4329C165.612 24.981 164.529 24.981 163.671 24.4329C162.816 23.8879 162.336 22.8881 162.436 21.8551ZM166.575 21.8551C166.575 20.6084 166.03 19.8796 165.076 19.8796C164.116 19.8796 163.577 20.6084 163.577 21.8551C163.577 23.1139 164.116 23.8367 165.076 23.8367C166.03 23.8367 166.575 23.1079 166.575 21.8551ZM169.189 18.9822H170.252V19.8946H170.333C170.62 19.2231 171.291 18.8105 172.002 18.8707C172.552 18.8286 173.094 19.0454 173.469 19.461C173.846 19.8766 174.016 20.4457 173.937 21.0089V24.7311H172.833V21.292C172.833 20.3674 172.444 19.9097 171.627 19.9097C171.253 19.8916 170.893 20.0422 170.635 20.3223C170.38 20.6023 170.254 20.9848 170.295 21.3673V24.7311H169.192V18.9822H169.189ZM180.172 17.5517V19.0093H181.384V19.9639H180.172V22.9212C180.172 23.5235 180.412 23.7885 180.962 23.7885C181.103 23.7885 181.243 23.7795 181.384 23.7614V24.707C181.185 24.7431 180.986 24.7642 180.784 24.7672C179.557 24.7672 179.068 24.3215 179.068 23.2133V19.9639H178.178V19.0093H179.065V17.5517H180.172ZM182.888 16.7356H183.983V19.9037H184.071C184.369 19.2261 185.052 18.8135 185.775 18.8738C186.322 18.8436 186.855 19.0665 187.229 19.4791C187.601 19.8946 187.774 20.4578 187.701 21.0179V24.7311H186.597V21.295C186.597 20.3765 186.181 19.9097 185.403 19.9097C185.019 19.8766 184.642 20.0211 184.369 20.3042C184.097 20.5843 183.963 20.9758 183.995 21.3703V24.7311H182.891V16.7356H182.888ZM194.132 23.1802C193.821 24.2643 192.803 24.966 191.708 24.8425C190.965 24.8636 190.247 24.5444 189.75 23.9722C189.252 23.4 189.024 22.6321 189.126 21.8732C189.027 21.1113 189.255 20.3403 189.75 19.7651C190.244 19.1869 190.956 18.8617 191.705 18.8677C193.259 18.8677 194.199 19.9609 194.199 21.7678V22.1623H190.253V22.2255C190.218 22.6532 190.362 23.0748 190.643 23.388C190.926 23.7012 191.325 23.8788 191.74 23.8728C192.282 23.9391 192.806 23.665 193.072 23.1741L194.132 23.1802ZM190.253 21.3281H193.078C193.104 20.9366 192.973 20.5542 192.709 20.2711C192.449 19.985 192.08 19.8314 191.699 19.8374C191.313 19.8314 190.941 19.988 190.669 20.2711C190.397 20.5481 190.247 20.9306 190.253 21.3281Z" fill="white"/>
</svg>
