<svg width="260" height="64" viewBox="0 0 260 64" fill="none" xmlns="http://www.w3.org/2000/svg">
<path d="M32 2H228C244.569 2 258 15.4315 258 32C258 48.5685 244.569 62 228 62H32C15.4315 62 2 48.5685 2 32C2 15.4315 15.4315 2 32 2Z" fill="black"/>
<path d="M32 2H228C244.569 2 258 15.4315 258 32C258 48.5685 244.569 62 228 62H32C15.4315 62 2 48.5685 2 32C2 15.4315 15.4315 2 32 2Z" stroke="#0751E4" stroke-width="4"/>
<path fill-rule="evenodd" clip-rule="evenodd" d="M116.131 19.897C116.131 20.8651 115.848 21.632 115.279 22.2085C114.631 22.8911 113.792 23.2311 112.756 23.2311C111.766 23.2311 110.922 22.8857 110.231 22.1922C109.535 21.5015 109.19 20.6394 109.19 19.6169C109.19 18.5917 109.535 17.7323 110.231 17.0416C110.922 16.3508 111.766 16.0027 112.756 16.0027C113.247 16.0027 113.719 16.1006 114.165 16.291C114.612 16.4841 114.971 16.7424 115.238 17.0633L114.634 17.6725C114.181 17.1259 113.555 16.8512 112.754 16.8512C112.03 16.8512 111.407 17.1068 110.878 17.6208C110.35 18.1348 110.088 18.7983 110.088 19.6169C110.088 20.4355 110.352 21.099 110.878 21.613C111.405 22.127 112.03 22.3799 112.754 22.3799C113.52 22.3799 114.159 22.1215 114.672 21.6075C115.004 21.2703 115.195 20.8053 115.246 20.207H112.754V19.3749H116.08C116.115 19.5543 116.131 19.7284 116.131 19.897Z" fill="white"/>
<path d="M116.131 19.897C116.131 20.8651 115.848 21.632 115.279 22.2085C114.631 22.8911 113.792 23.2311 112.756 23.2311C111.766 23.2311 110.922 22.8857 110.231 22.1922C109.535 21.5015 109.19 20.6394 109.19 19.6169C109.19 18.5917 109.535 17.7323 110.231 17.0416C110.922 16.3508 111.766 16.0027 112.756 16.0027C113.247 16.0027 113.719 16.1006 114.165 16.291C114.612 16.4841 114.971 16.7424 115.238 17.0633L114.634 17.6725C114.181 17.1259 113.555 16.8512 112.754 16.8512C112.03 16.8512 111.407 17.1068 110.878 17.6208C110.35 18.1348 110.088 18.7983 110.088 19.6169C110.088 20.4355 110.352 21.099 110.878 21.613C111.405 22.127 112.03 22.3799 112.754 22.3799C113.52 22.3799 114.159 22.1215 114.672 21.6075C115.004 21.2703 115.195 20.8053 115.246 20.207H112.754V19.3749H116.08C116.115 19.5543 116.131 19.7284 116.131 19.897Z" fill="white"/>
<path fill-rule="evenodd" clip-rule="evenodd" d="M121.406 17.0062H118.279V19.2008H121.095V20.033H118.279V22.2276H121.406V23.0788H117.397V16.1577H121.406V17.0062Z" fill="white"/>
<path d="M121.406 17.0062H118.279V19.2008H121.095V20.033H118.279V22.2276H121.406V23.0788H117.397V16.1577H121.406V17.0062Z" fill="white"/>
<path fill-rule="evenodd" clip-rule="evenodd" d="M125.124 23.076H124.241V17.0062H122.323V16.155H127.042V17.0062H125.124V23.076Z" fill="white"/>
<path d="M125.124 23.076H124.241V17.0062H122.323V16.155H127.042V17.0062H125.124V23.076Z" fill="white"/>
<path fill-rule="evenodd" clip-rule="evenodd" d="M130.454 23.076H131.337V16.155H130.454V23.076Z" fill="white"/>
<path d="M130.454 23.076H131.337V16.155H130.454V23.076Z" fill="white"/>
<path fill-rule="evenodd" clip-rule="evenodd" d="M135.251 23.076H134.369V17.0062H132.451V16.155H137.169V17.0062H135.251V23.076Z" fill="white"/>
<path d="M135.251 23.076H134.369V17.0062H132.451V16.155H137.169V17.0062H135.251V23.076Z" fill="white"/>
<path fill-rule="evenodd" clip-rule="evenodd" d="M141.715 21.6021C142.223 22.1215 142.846 22.3799 143.582 22.3799C144.316 22.3799 144.937 22.1215 145.447 21.6021C145.954 21.0827 146.21 20.4219 146.21 19.6169C146.21 18.8119 145.954 18.1484 145.447 17.6317C144.939 17.1123 144.316 16.8539 143.582 16.8539C142.846 16.8539 142.225 17.115 141.718 17.6317C141.211 18.1484 140.955 18.8119 140.955 19.6169C140.955 20.4219 141.208 21.0827 141.715 21.6021ZM146.1 22.1814C145.422 22.883 144.586 23.2311 143.582 23.2311C142.579 23.2311 141.74 22.883 141.065 22.1814C140.391 21.4824 140.054 20.6285 140.054 19.6169C140.054 18.6053 140.391 17.7486 141.065 17.0497C141.74 16.3508 142.576 16 143.58 16C144.578 16 145.414 16.3508 146.091 17.0524C146.769 17.7541 147.106 18.608 147.106 19.6142C147.111 20.6285 146.774 21.4824 146.1 22.1814Z" fill="white"/>
<path d="M141.715 21.6021C142.223 22.1215 142.846 22.3799 143.582 22.3799C144.316 22.3799 144.937 22.1215 145.447 21.6021C145.954 21.0827 146.21 20.4219 146.21 19.6169C146.21 18.8119 145.954 18.1484 145.447 17.6317C144.939 17.1123 144.316 16.8539 143.582 16.8539C142.846 16.8539 142.225 17.115 141.718 17.6317C141.211 18.1484 140.955 18.8119 140.955 19.6169C140.955 20.4219 141.208 21.0827 141.715 21.6021ZM146.1 22.1814C145.422 22.883 144.586 23.2311 143.582 23.2311C142.579 23.2311 141.74 22.883 141.065 22.1814C140.391 21.4824 140.054 20.6285 140.054 19.6169C140.054 18.6053 140.391 17.7486 141.065 17.0497C141.74 16.3508 142.576 16 143.58 16C144.578 16 145.414 16.3508 146.091 17.0524C146.769 17.7541 147.106 18.608 147.106 19.6142C147.111 20.6285 146.774 21.4824 146.1 22.1814Z" fill="white"/>
<path fill-rule="evenodd" clip-rule="evenodd" d="M148.35 23.076V16.155H149.423L152.761 21.5368H152.798L152.761 20.2043V16.155H153.646V23.076H152.723L149.232 17.4304H149.194L149.232 18.7657V23.076H148.35Z" fill="white"/>
<path d="M148.35 23.076V16.155H149.423L152.761 21.5368H152.798L152.761 20.2043V16.155H153.646V23.076H152.723L149.232 17.4304H149.194L149.232 18.7657V23.076H148.35Z" fill="white"/>
<path d="M126.342 43.5972C129.04 43.5972 131.228 41.4007 131.228 38.6913C131.228 35.9818 129.04 33.7853 126.342 33.7853C123.643 33.7853 121.456 35.9818 121.456 38.6913C121.456 41.4007 123.643 43.5972 126.342 43.5972Z" fill="white"/>
<path d="M136.998 43.5972C139.697 43.5972 141.884 41.4007 141.884 38.6913C141.884 35.9818 139.697 33.7853 136.998 33.7853C134.3 33.7853 132.112 35.9818 132.112 38.6913C132.112 41.4007 134.3 43.5972 136.998 43.5972Z" fill="white"/>
<path d="M113.667 37.3723V35.2919L120.617 35.2892C120.693 35.6618 120.728 36.1078 120.728 36.5891C120.728 38.1501 120.302 40.0809 118.939 41.457C117.612 42.852 115.917 43.5945 113.667 43.5945C109.502 43.5945 106 40.1761 106 35.9772C106 31.7784 109.502 28.3573 113.667 28.3573C115.971 28.3573 117.612 29.2683 118.847 30.4567L117.391 31.9252C116.506 31.0904 115.308 30.4404 113.667 30.4404C110.627 30.4404 108.247 32.9124 108.247 35.9772C108.247 39.0421 110.624 41.5141 113.667 41.5141C115.64 41.5141 116.765 40.7173 117.485 39.9912C118.073 39.3983 118.462 38.5444 118.61 37.3723H113.667Z" fill="white"/>
<path d="M170.412 28.8821H175.527C177.893 28.8821 180.219 30.609 180.219 33.3584C180.219 36.1105 177.893 37.8374 175.527 37.8374H172.546V43.3008H170.412V28.8821Z" fill="white"/>
<path d="M181.398 28.8821H183.532V43.3008H181.398V28.8821Z" fill="white"/>
<path d="M198.182 40.3284L200.629 34.0763H203L197.129 47.6737H194.904L197.075 42.8113L193.266 34.0763H195.567L198.106 40.3284H198.182Z" fill="white"/>
<path d="M188.777 33.7609C187.231 33.7609 185.631 34.4462 184.967 35.9691L186.861 36.7659C187.266 35.9691 188.021 35.708 188.812 35.708C189.915 35.708 191.037 36.377 191.056 37.5627V37.7123C190.668 37.4893 189.842 37.1575 188.83 37.1575C186.785 37.1575 184.708 38.2888 184.708 40.4018C184.708 42.3326 186.384 43.5754 188.261 43.5754C189.694 43.5754 190.487 42.9255 190.983 42.164H191.056V43.2763H193.117V37.7476C193.12 35.1886 191.224 33.7609 188.777 33.7609Z" fill="white"/>
<path d="M150.078 34.8813H150.005C149.525 34.3048 148.602 33.7826 147.445 33.7826C145.011 33.7826 142.78 35.9392 142.78 38.7076C142.78 41.457 145.011 43.5945 147.445 43.5945C148.605 43.5945 149.528 43.075 150.005 42.4822H150.078V43.1865C150.078 45.063 149.082 46.0665 147.48 46.0665C146.171 46.0665 145.359 45.1201 145.027 44.3206L143.166 45.101C143.7 46.401 145.119 48 147.48 48C149.989 48 152.107 46.5125 152.107 42.8901V34.0818H150.078V34.8813Z" fill="white"/>
<path d="M155.722 43.3008H153.582V28.8821H155.722V43.3008Z" fill="white"/>
<path d="M165.51 36.9073C165.105 35.8113 163.87 33.7853 161.345 33.7853C158.838 33.7853 156.755 35.776 156.755 38.6913C156.755 41.4406 158.819 43.5972 161.585 43.5972C163.816 43.5972 165.105 42.2211 165.642 41.4216L163.983 40.3066C163.427 41.1252 162.675 41.6636 161.585 41.6636C160.497 41.6636 159.723 41.1605 159.227 40.1761L165.734 37.4621L165.51 36.9073Z" fill="white"/>
<path d="M172.544 35.8304H175.582C177.176 35.8304 178.083 34.4761 178.086 33.3584C178.086 32.2217 177.179 30.8891 175.582 30.8891H172.544V35.8304Z" fill="black"/>
<path d="M123.596 38.6913C123.596 36.9264 124.869 35.7189 126.342 35.7189C127.818 35.7189 129.089 36.9264 129.089 38.6913C129.089 40.4399 127.818 41.6664 126.342 41.6664C124.867 41.6664 123.596 40.4372 123.596 38.6913Z" fill="black"/>
<path d="M136.999 35.7189C138.475 35.7189 139.746 36.9264 139.746 38.6913C139.746 40.4372 138.475 41.6664 136.999 41.6664C135.524 41.6664 134.253 40.4372 134.253 38.6913C134.253 36.9264 135.526 35.7189 136.999 35.7189Z" fill="black"/>
<path d="M147.629 41.6664C146.156 41.6664 144.92 40.4209 144.92 38.713C144.92 36.9835 146.156 35.7216 147.631 35.7216C149.085 35.7216 150.229 36.9862 150.229 38.713C150.227 40.4209 149.083 41.6637 147.629 41.6664Z" fill="black"/>
<path d="M158.874 38.5445C158.82 36.649 160.331 35.6836 161.421 35.6836C162.268 35.6836 162.988 36.1132 163.226 36.7251L158.874 38.5445Z" fill="black"/>
<path d="M186.842 40.4399C186.842 41.3101 187.819 41.6637 188.518 41.6637C189.751 41.6637 190.892 40.7173 191.056 39.382C190.487 39.1047 190.042 38.9007 189.106 38.9007C188.056 38.9007 186.842 39.3276 186.842 40.4399Z" fill="black"/>
<path d="M77.9759 31.2837L65.1202 45.3427C65.1202 45.3427 65.1202 45.3479 65.1202 45.3505C65.5138 46.8767 66.8662 48 68.4735 48C69.1169 48 69.7175 47.8206 70.2347 47.5086L70.2751 47.4826L84.7456 38.8787L77.9734 31.2811L77.9759 31.2837Z" fill="#EA4435"/>
<path d="M90.98 28.889L90.9674 28.8812L84.7199 25.15L77.6827 31.6035L84.7451 38.8787L90.9573 35.1839C92.0473 34.5755 92.7866 33.3924 92.7866 32.03C92.7866 30.6675 92.0574 29.4974 90.9775 28.889" fill="#F9BC15"/>
<path d="M65.1186 18.6573C65.0404 18.9512 65 19.2606 65 19.5778V44.4222C65 44.7394 65.0404 45.0488 65.1186 45.3427L78.4133 31.6425L65.1161 18.6573H65.1186Z" fill="#547DBF"/>
<path d="M78.0693 32.0013L84.7229 25.1473L70.27 16.5122C69.7452 16.1872 69.1321 16 68.476 16C66.8713 16 65.5163 17.1259 65.1202 18.6548V18.6574L78.0718 32.0013H78.0693Z" fill="#33A851"/>
</svg>
