<svg width="28" height="33" viewBox="0 0 28 33" fill="none" xmlns="http://www.w3.org/2000/svg">
<path d="M12.9759 15.7307L0.120178 29.7897C0.120178 29.7897 0.120178 29.7949 0.120178 29.7975C0.513798 31.3238 1.86623 32.4471 3.47351 32.4471C4.11693 32.4471 4.71745 32.2677 5.23471 31.9557L5.27508 31.9297L19.7456 23.3258L12.9734 15.7281L12.9759 15.7307Z" fill="#EA4435"/>
<path d="M25.98 13.3361L25.9674 13.3283L19.7199 9.59705L12.6827 16.0506L19.7451 23.3258L25.9573 19.631C27.0473 19.0226 27.7866 17.8395 27.7866 16.477C27.7866 15.1146 27.0574 13.9445 25.9775 13.3361" fill="#F9BC15"/>
<path d="M0.11859 3.10443C0.0403706 3.39825 0 3.70767 0 4.02488V28.8693C0 29.1865 0.0403706 29.4959 0.11859 29.7897L13.4133 16.0896L0.116067 3.10443H0.11859Z" fill="#547DBF"/>
<path d="M13.0693 16.4484L19.7229 9.5944L5.27003 0.959312C4.74521 0.634293 4.13207 0.447083 3.47604 0.447083C1.87128 0.447083 0.516321 1.57295 0.120178 3.10183V3.10443L13.0718 16.4484H13.0693Z" fill="#33A851"/>
</svg>
